<?xml version="1.0" encoding="UTF-8"?>
<!DOCTYPE svg PUBLIC "-//W3C//DTD SVG 1.1//EN" "http://www.w3.org/Graphics/SVG/1.1/DTD/svg11.dtd">
<!-- Creator: CorelDRAW -->
<svg xmlns="http://www.w3.org/2000/svg" xml:space="preserve" width="8.66666in" height="8.66666in" style="shape-rendering:geometricPrecision; text-rendering:geometricPrecision; image-rendering:optimizeQuality; fill-rule:evenodd; clip-rule:evenodd"
viewBox="0 0 8.66666 8.66666"
 xmlns:xlink="http://www.w3.org/1999/xlink">
 <defs>
  <style type="text/css">
   <![CDATA[
    .fil1 {fill:black}
    .fil0 {fill:black;fill-rule:nonzero}
   ]]>
  </style>
 </defs>
 <g id="Layer_x0020_1">
  <metadata id="CorelCorpID_0Corel-Layer"/>
  <path class="fil0" d="M3.62298 5.67467c-0.0261732,-0.147094 -0.0780118,-0.279402 -0.14487,-0.404118 -0.0871063,-0.162488 -0.201087,-0.314752 -0.317539,-0.469732 -0.00156299,-0.00174016 -0.00306693,-0.00355906 -0.0045,-0.00546457l0.000251969 -0.000188976 -4.33071e-005 -5.51181e-005 0.0590866 -0.044311 0.00466142 -0.00350394 -0.063752 0.047811c-0.267327,-0.355764 -0.546402,-0.727161 -0.546402,-1.29831 0,-0.232941 0.0464843,-0.455476 0.130705,-0.658807 0.0875669,-0.211417 0.21552,-0.401299 0.374083,-0.559862 0.158563,-0.158563 0.348445,-0.286516 0.559862,-0.374083 0.203331,-0.0842205 0.425866,-0.130705 0.658807,-0.130705 0.232941,0 0.455476,0.0464843 0.658807,0.130705 0.211417,0.0875669 0.401299,0.21552 0.559862,0.374083 0.158563,0.158563 0.286516,0.348445 0.374083,0.559862 0.0842205,0.203331 0.130705,0.425866 0.130705,0.658807 0,0.568106 -0.276106,0.938583 -0.542122,1.29262 -0.00125591,0.00202362 -0.00261417,0.004 -0.00406693,0.00592913l-1.1811e-005 1.9685e-005c-0.00140945,0.00186614 -0.00290157,0.00369291 -0.00449606,0.00546063 -0.116457,0.154988 -0.230433,0.307244 -0.317539,0.469732 -0.0668583,0.124713 -0.118697,0.257024 -0.14487,0.404118 -0.027189,-0.0213425 -0.0614567,-0.0340709 -0.098685,-0.0340709l-0.327193 0c0.0204803,-0.254961 0.0956339,-0.766378 0.371508,-1.14874 0.00938189,-0.0107441 0.0160079,-0.0241339 0.0185591,-0.0392283 0.0073622,-0.043563 -0.0219843,-0.0848543 -0.0655472,-0.0922165l-0.0133346 0.0788819 0.013126 -0.078752c-0.130646,-0.0220827 -0.347843,-0.033685 -0.564343,-0.033685 -0.207205,0 -0.416484,0.010626 -0.551685,0.0328307 -0.0137008,0.00135827 -0.0272323,0.00626772 -0.0391614,0.0149646 -0.0356969,0.0260276 -0.0435354,0.0760787 -0.0175079,0.111776l0.000299213 -0.000216535c0.279213,0.382953 0.354976,0.898165 0.375543,1.15438l-0.423594 0c-0.0372283,0 -0.0714961,0.0127283 -0.098685,0.0340709zm0.681898 -0.0340709c-0.0191772,-0.246634 -0.0877638,-0.735772 -0.332996,-1.13799 0.116366,-0.0106102 0.260961,-0.0157441 0.40589,-0.0157441 0.14898,0 0.296803,0.0054252 0.413303,0.0158976 -0.245154,0.402197 -0.31372,0.891236 -0.332894,1.13784l-0.153303 0z"/>
  <polygon class="fil0" points="4.92283,6.52418 4.92489,6.52797 4.92489,6.52793 4.92288,6.52422 "/>
  <polygon class="fil0" points="4.92211,6.52286 4.92215,6.52294 4.92221,6.52298 4.92217,6.52291 "/>
  <polygon class="fil0" points="4.92489,6.52793 4.92489,6.52797 4.93228,6.54154 "/>
  <polygon class="fil0" points="3.72554,6.53291 3.72517,6.53311 3.72517,6.53311 "/>
  <path class="fil0" d="M3.72167 5.72059l1.22333 0c0.0441811,0 0.08,0.0358189 0.08,0.08l0 0.716366c0,0.0114291 -0.00174803,0.0226024 -0.0048937,0.0330315 -0.00278346,0.00924409 -0.0066811,0.0178898 -0.0114882,0.0256929 -0.00437402,0.00753543 -0.00992913,0.0142795 -0.0164134,0.0199803 -0.00351969,0.00339764 -0.0072874,0.00654724 -0.0112913,0.00941732 -0.00325591,0.00248819 -0.00674409,0.00475591 -0.0104606,0.00677165l-8.26772e-005 -0.000149606 -0.000271654 0.000149606 -5.90551e-005 -0.000110236c-0.0140591,0.00755906 -0.0293071,0.0117362 -0.0451417,0.0117362l-1.18313 0c-0.0164213,0 -0.0320866,-0.00441732 -0.0463307,-0.0123504 -0.00770472,-0.00431102 -0.0147992,-0.00967323 -0.0211339,-0.0159094 -0.00175591,-0.00157874 -0.00345669,-0.00324409 -0.00509055,-0.00499606 -0.00192126,-0.00205512 -0.00371654,-0.0041811 -0.00538189,-0.00637795 -0.00297244,-0.00361417 -0.00566535,-0.00753543 -0.00803937,-0.0117559l0.0005 -0.000279528 -3.14961e-005 -6.69291e-005 -0.000409449 0.000228346c-0.00453937,-0.00808268 -0.00817717,-0.0174449 -0.0106969,-0.0277638 -0.00224803,-0.00931496 -0.00348819,-0.0185276 -0.00348819,-0.027248l0 -0.716366c0,-0.0441811 0.0358189,-0.08 0.08,-0.08z"/>
  <path class="fil0" d="M3.92339 6.73332c-0.0441811,0 -0.08,0.0358189 -0.08,0.08 0,0.0441811 0.0358189,0.08 0.08,0.08l0.819874 0c0.0441811,0 0.08,-0.0358189 0.08,-0.08 0,-0.0441811 -0.0358189,-0.08 -0.08,-0.08l-0.819874 0z"/>
  <path class="fil1" d="M4.33333 0c2.39323,0 4.33333,1.9401 4.33333,4.33333 0,2.39323 -1.9401,4.33333 -4.33333,4.33333 -2.39323,0 -4.33333,-1.9401 -4.33333,-4.33333 0,-2.39323 1.9401,-4.33333 4.33333,-4.33333zm0 0.479996c2.12814,0 3.85333,1.7252 3.85333,3.85333 0,2.12814 -1.7252,3.85333 -3.85333,3.85333 -2.12814,0 -3.85333,-1.7252 -3.85333,-3.85333 0,-2.12814 1.7252,-3.85333 3.85333,-3.85333z"/>
 </g>
</svg>
